<svg width="115" height="61" viewBox="0 0 115 61" fill="none" xmlns="http://www.w3.org/2000/svg">
<path d="M51.3923 4.75523L51.4308 8.13684C51.4308 8.29271 51.4976 8.39571 51.6311 8.4458C51.7236 8.48477 51.7724 8.55712 51.7775 8.66288C51.834 9.51455 51.8417 10.4274 51.8006 11.4016C51.7852 11.7356 51.929 11.9332 52.232 11.9944C52.3244 12.0111 52.3912 12.064 52.4323 12.1531C52.5402 12.3646 52.5941 12.5928 52.5941 12.8377C52.5889 14.4297 52.5838 15.941 52.5787 17.3716C52.5787 17.5219 52.6377 17.6332 52.7558 17.7056C52.8277 17.7501 52.8997 17.7947 52.9715 17.8392C53.1667 17.945 53.2746 18.1175 53.2951 18.3569L53.5879 21.9389C46.8779 23.542 45.3603 29.7876 48.1722 35.8077C50.1032 39.9547 53.1667 42.8326 57.3627 44.4413C56.089 45.1315 55.9503 46.0583 56.9467 47.2217C57.1213 47.4221 57.2086 47.6615 57.2086 47.9398V52.1564C57.2086 52.4514 57.3267 52.6768 57.563 52.8327C57.8916 53.0553 58.0457 53.3699 58.0252 53.7762C57.9173 55.9972 57.9944 57.9037 58.2563 59.4957C51.4103 58.054 44.9186 55.5352 38.7813 51.9393C23.2301 42.8159 10.8066 30.4055 1.51082 14.7081C1.00238 13.8564 0.522182 12.9769 0.0702315 12.0696C-0.073571 11.7857 0.00345662 11.6604 0.301333 11.6938C3.09521 12.0055 5.84287 11.3988 8.5443 9.87359C17.6347 4.73854 26.7636 -0.129318 37.1867 0.329915C41.8628 0.530307 46.8625 2.83481 51.3923 4.75523Z" fill="url(#paint0_linear_2199_3977)"/>
<path d="M51.3923 4.75523C55.239 6.28044 59.1139 7.74719 63.0172 9.15551C66.9075 10.5583 70.3973 11.2429 74.4109 10.959C75.3354 10.8922 75.8849 11.3515 76.0595 12.3367C76.5628 15.2146 75.8798 17.5497 74.0103 19.3421C72.105 21.1679 69.9993 22.2172 67.6933 22.4899C66.9435 22.579 64.7787 22.387 61.1991 21.9138C58.6158 21.5743 56.0787 21.5826 53.5879 21.9389L53.2951 18.3569C53.2746 18.1175 53.1667 17.945 52.9715 17.8392C52.8997 17.7947 52.8277 17.7501 52.7558 17.7056C52.6377 17.6332 52.5787 17.5219 52.5787 17.3716C52.5838 15.941 52.5889 14.4297 52.5941 12.8377C52.5941 12.5928 52.5402 12.3646 52.4323 12.1531C52.3912 12.064 52.3244 12.0111 52.232 11.9944C51.929 11.9332 51.7852 11.7356 51.8006 11.4016C51.8417 10.4274 51.834 9.51455 51.7775 8.66288C51.7724 8.55712 51.7236 8.48477 51.6311 8.4458C51.4976 8.39571 51.4308 8.29271 51.4308 8.13684L51.3923 4.75523Z" fill="url(#paint1_linear_2199_3977)"/>
<path d="M67.6625 27.1491C70.3485 25.9745 73.1347 24.7917 76.021 23.6005C79.8806 22.0057 84.9188 21.9305 87.6536 25.7046C87.8591 25.9885 87.8026 26.1666 87.4842 26.239C83.2266 27.2409 78.3065 28.691 72.7239 30.5891C65.4105 33.0773 57.6195 33.3779 49.3508 31.4909C49.2832 31.4744 49.2193 31.443 49.1634 31.3989C49.1075 31.3547 49.0606 31.2987 49.0259 31.2343C48.9911 31.1699 48.9692 31.0986 48.9615 31.0249C48.9537 30.9513 48.9604 30.8768 48.981 30.8062L49.3277 29.5705C49.3637 29.4455 49.44 29.3391 49.5423 29.2714C49.6445 29.2037 49.7655 29.1794 49.8824 29.2031C55.9375 30.372 61.8642 29.6874 67.6625 27.1491Z" fill="url(#paint2_linear_2199_3977)"/>
<path d="M75.5665 31.9251C79.6392 30.3944 83.5835 29.2616 87.3994 28.5268C90.5271 27.9256 94.1016 28.5769 96.3588 31.2321C96.3857 31.2624 96.4038 31.3005 96.4111 31.3418C96.4184 31.3831 96.4144 31.4258 96.3997 31.4647C96.385 31.5036 96.3603 31.537 96.3284 31.5609C96.2965 31.5849 96.2589 31.5983 96.2201 31.5995C94.9927 31.6551 93.8191 31.8416 92.6995 32.1589C86.3517 33.9457 80.4789 35.4793 75.0812 36.7596C67.2542 38.6132 59.096 38.3933 50.6065 36.1C50.3343 36.0276 50.1366 35.8523 50.0133 35.5739L49.3816 34.1628C49.2481 33.8622 49.3328 33.7426 49.6358 33.8038C58.6594 35.6519 67.303 35.0256 75.5665 31.9251Z" fill="url(#paint3_linear_2199_3977)"/>
<path d="M57.8942 42.4457C56.0042 41.6163 54.3351 40.5809 52.8868 39.3396C52.4194 38.9388 52.4785 38.8024 53.064 38.9305C61.6613 40.7896 70.4409 40.4668 79.4029 37.9619C85.5582 36.2419 91.9061 34.0125 98.146 33.4781C101.993 33.1441 104.897 34.5747 106.859 37.7699C107.172 38.282 107.044 38.552 106.474 38.5798C104.414 38.6855 102.216 39.103 99.8794 39.8322C86.0204 44.1574 71.6607 48.5159 57.8942 42.4457Z" fill="url(#paint4_linear_2199_3977)"/>
<path d="M58.2563 59.4957C57.9944 57.9037 57.9173 55.9972 58.0252 53.7762C58.0457 53.3699 57.8916 53.0553 57.563 52.8327C57.3267 52.6768 57.2086 52.4514 57.2086 52.1564V47.9398C57.2086 47.6615 57.1213 47.4221 56.9467 47.2217C55.9503 46.0583 56.089 45.1315 57.3627 44.4413C71.5144 50.453 86.1668 46.2866 100.049 41.9447C105.488 40.2414 111.782 39.4064 114.193 46.512C114.232 46.624 114.233 46.747 114.196 46.8588C114.159 46.9706 114.087 47.0638 113.993 47.1215C105.97 52.02 97.5426 55.794 88.709 58.4437C78.6634 61.4551 68.5125 61.8058 58.2563 59.4957Z" fill="url(#paint5_linear_2199_3977)"/>
<defs>
<linearGradient id="paint0_linear_2199_3977" x1="111.931" y1="29.8939" x2="-2.16329" y2="29.428" gradientUnits="userSpaceOnUse">
<stop stop-color="#01E248"/>
<stop offset="1" stop-color="#00C5CE"/>
</linearGradient>
<linearGradient id="paint1_linear_2199_3977" x1="111.931" y1="29.8939" x2="-2.16329" y2="29.428" gradientUnits="userSpaceOnUse">
<stop stop-color="#01E248"/>
<stop offset="1" stop-color="#00C5CE"/>
</linearGradient>
<linearGradient id="paint2_linear_2199_3977" x1="111.931" y1="29.8939" x2="-2.16329" y2="29.428" gradientUnits="userSpaceOnUse">
<stop stop-color="#01E248"/>
<stop offset="1" stop-color="#00C5CE"/>
</linearGradient>
<linearGradient id="paint3_linear_2199_3977" x1="111.931" y1="29.8939" x2="-2.16329" y2="29.428" gradientUnits="userSpaceOnUse">
<stop stop-color="#01E248"/>
<stop offset="1" stop-color="#00C5CE"/>
</linearGradient>
<linearGradient id="paint4_linear_2199_3977" x1="111.931" y1="29.8939" x2="-2.16329" y2="29.428" gradientUnits="userSpaceOnUse">
<stop stop-color="#01E248"/>
<stop offset="1" stop-color="#00C5CE"/>
</linearGradient>
<linearGradient id="paint5_linear_2199_3977" x1="111.931" y1="29.8939" x2="-2.16329" y2="29.428" gradientUnits="userSpaceOnUse">
<stop stop-color="#01E248"/>
<stop offset="1" stop-color="#00C5CE"/>
</linearGradient>
</defs>
</svg>
