<svg width="115" height="62" viewBox="0 0 115 62" fill="none" xmlns="http://www.w3.org/2000/svg">
<path d="M61.6293 39.2542C66.1745 38.1437 68.6242 34.0857 67.5919 29.0509C66.6418 24.4419 64.2973 20.9712 60.5585 18.6388C46.1679 9.66293 28.7345 13.9797 13.2808 18.1128C8.19639 19.4738 2.45712 19.1064 0.608233 12.7189C0.572952 12.6017 0.576761 12.4748 0.619001 12.3604C0.66124 12.2459 0.739218 12.1512 0.839335 12.0927C8.62778 7.56717 17.4717 4.23565 25.9457 1.99793C44.4115 -2.87828 64.0482 1.38006 80.0026 12.4935C93.2684 21.7394 103.884 33.1812 111.85 46.819C112.733 48.3331 113.521 49.8639 114.215 51.4113C114.343 51.7063 114.258 51.8316 113.961 51.7871C111.305 51.403 108.624 51.8567 105.918 53.1481C94.1543 58.7674 82.021 65.3052 69.0248 59.5523C63.2573 57.0028 57.3203 54.4562 51.2139 51.9123C47.3312 50.2925 43.3407 49.4325 39.2577 49.5577C38.9322 49.5672 38.6144 49.4501 38.3626 49.2278C38.1108 49.0055 37.9418 48.6928 37.8865 48.347C36.6077 40.4482 44.7196 37.5926 50.4435 38.6948C54.226 39.4129 57.7774 40.1977 61.6293 39.2542Z" fill="url(#paint0_linear_2199_3978)"/>
<path d="M56.7683 18.8309C58.6942 19.7327 60.4327 20.8849 61.9837 22.2877C62.4048 22.6717 62.3457 22.8026 61.8065 22.6801C58.9715 22.0288 56.1288 21.4193 53.2477 21.1521C47.7575 20.6567 41.7897 21.1326 35.3443 22.5799C28.9502 24.016 22.3635 26.0283 15.746 26.2788C12.3051 26.4124 9.62416 24.89 7.70337 21.7115C7.28224 21.0213 7.4517 20.7207 8.2118 20.8098C9.15165 20.9211 10.0633 20.8821 10.9466 20.6929C26.1923 17.3864 41.5689 11.6836 56.7683 18.8309Z" fill="url(#paint1_linear_2199_3978)"/>
<path d="M64.757 26.0951L65.3425 27.5229C65.4863 27.8625 65.3887 27.9905 65.0497 27.907C59.8883 26.5877 54.4931 26.1647 48.8643 26.6378C43.3869 27.1054 37.8249 29.1428 32.3167 30.6039C27.5635 31.8647 22.4714 32.7748 18.6195 29.2847C17.8132 28.5499 17.9364 28.1714 18.9893 28.1491C19.7827 28.1324 20.8767 28.0573 21.6317 27.8736C27.6971 26.4152 33.5852 25.1238 39.2963 23.9993C47.3852 22.4073 55.6897 22.9334 64.21 25.5774C64.4668 25.6609 64.6491 25.8335 64.757 26.0951Z" fill="url(#paint2_linear_2199_3978)"/>
<path d="M65.6352 31.0548L65.3502 31.8898C65.1961 32.3295 64.9085 32.5021 64.4874 32.4075C55.6127 30.4036 48.3404 32.8583 39.928 36.407C35.4829 38.2856 29.6435 38.9035 26.5312 34.2361C26.5001 34.1905 26.4812 34.1365 26.4765 34.0801C26.4718 34.0236 26.4815 33.9669 26.5045 33.916C26.5276 33.8652 26.5631 33.8221 26.6072 33.7917C26.6513 33.7612 26.7023 33.7445 26.7546 33.7434C27.7766 33.6877 28.7704 33.5569 29.7359 33.351C36.3226 31.9566 42.9863 29.1845 49.6654 28.7169C54.9707 28.344 60.1399 28.8115 65.173 30.1196C65.6557 30.2421 65.8098 30.5538 65.6352 31.0548Z" fill="url(#paint3_linear_2199_3978)"/>
<defs>
<linearGradient id="paint0_linear_2199_3978" x1="111.992" y1="30.1229" x2="-1.56896" y2="29.6694" gradientUnits="userSpaceOnUse">
<stop stop-color="#01E248"/>
<stop offset="1" stop-color="#00C5CE"/>
</linearGradient>
<linearGradient id="paint1_linear_2199_3978" x1="111.992" y1="30.1229" x2="-1.56896" y2="29.6694" gradientUnits="userSpaceOnUse">
<stop stop-color="#01E248"/>
<stop offset="1" stop-color="#00C5CE"/>
</linearGradient>
<linearGradient id="paint2_linear_2199_3978" x1="111.992" y1="30.1229" x2="-1.56896" y2="29.6694" gradientUnits="userSpaceOnUse">
<stop stop-color="#01E248"/>
<stop offset="1" stop-color="#00C5CE"/>
</linearGradient>
<linearGradient id="paint3_linear_2199_3978" x1="111.992" y1="30.1229" x2="-1.56896" y2="29.6694" gradientUnits="userSpaceOnUse">
<stop stop-color="#01E248"/>
<stop offset="1" stop-color="#00C5CE"/>
</linearGradient>
</defs>
</svg>
