<svg width="239" height="90" viewBox="0 0 239 90" fill="none" xmlns="http://www.w3.org/2000/svg">
<path d="M58.8418 0.482597C58.7236 0.582793 58.5567 0.607839 58.341 0.557741C58.3051 0.546608 58.2794 0.563305 58.264 0.607837C58.2434 0.646802 58.2075 0.649593 58.1561 0.616195C58.2383 0.644027 58.323 0.669073 58.4104 0.691339C58.6312 0.75257 58.7416 0.908428 58.7416 1.15892V3.67218C58.7416 3.98947 58.8829 4.18707 59.1653 4.265C59.2372 4.28727 59.2937 4.33459 59.3348 4.40696C59.4529 4.60178 59.512 4.81052 59.512 5.03318C59.5171 6.46933 59.5146 7.98061 59.5043 9.56705C59.4992 9.87321 59.6353 10.0541 59.9126 10.1098C59.9896 10.1265 60.0512 10.1682 60.0975 10.235C60.2207 10.4354 60.2823 10.6525 60.2823 10.8863C60.2823 12.3169 60.2798 13.8198 60.2747 15.3951C60.2695 15.7124 60.4082 15.9017 60.6907 15.9629C60.7626 15.974 60.819 16.013 60.8601 16.0798C60.9988 16.2913 61.0656 16.5307 61.0604 16.7979C61.0502 18.3843 61.045 19.9039 61.045 21.3568C61.0399 21.5015 61.0989 21.6073 61.2222 21.6741C61.2838 21.7075 61.3455 21.7437 61.4071 21.7826C61.6434 21.9218 61.7794 22.1361 61.8154 22.4256C62.0157 24.012 61.8462 25.2811 61.307 26.233C53.6906 23.2271 46.6442 21.354 40.168 20.6137C25.0739 18.8825 11.9288 23.0045 0.73273 32.9796C-0.0684553 33.6921 -0.191723 33.5752 0.362944 32.6289C5.77094 23.3774 12.9149 15.7764 21.7947 9.82589C33.0883 2.25551 45.4373 -0.858918 58.8418 0.482597Z" fill="url(#paint0_linear_2199_3974)"/>
<path d="M58.8418 0.482597C71.237 1.71 83.4705 6.19379 94.664 11.9801C105.809 17.747 116.653 24.0955 127.197 31.0257C126.555 32.2281 126.321 33.6837 126.496 35.3926C126.526 35.7043 126.678 35.9047 126.95 35.9938C127.022 36.016 127.081 36.0634 127.127 36.1357C127.246 36.3361 127.305 36.5504 127.305 36.7787C127.315 38.2037 127.312 39.7094 127.297 41.2958C127.292 41.602 127.428 41.7801 127.705 41.8302C127.787 41.8469 127.852 41.8914 127.898 41.9638C128.016 42.1698 128.075 42.3896 128.075 42.6234C128.08 44.0484 128.077 45.557 128.067 47.149C128.067 47.4496 128.203 47.6249 128.476 47.675C128.558 47.6917 128.622 47.7362 128.668 47.8086C128.786 48.0145 128.845 48.2344 128.845 48.4682C128.85 49.8932 128.848 51.4017 128.838 52.9937C128.838 53.2943 128.974 53.4697 129.246 53.5198C129.328 53.5365 129.39 53.581 129.431 53.6533C129.554 53.8593 129.616 54.0792 129.616 54.313C129.621 55.738 129.618 57.2465 129.608 58.8385C129.608 59.1335 129.744 59.3089 130.016 59.3646C130.098 59.3757 130.163 59.4202 130.209 59.4981C130.332 59.7097 130.394 59.9379 130.394 60.1828C130.404 61.6134 130.394 63.044 130.363 64.4745C130.353 64.7584 130.455 64.9839 130.671 65.1509C131.154 65.5238 131.321 66.0498 131.172 66.729C131.142 66.8686 131.156 67.0152 131.214 67.1444C131.271 67.2736 131.368 67.3775 131.488 67.4387C132.13 67.7727 132.245 68.0816 131.834 68.3655C118.748 59.988 107.917 52.9436 99.3401 47.2325C86.8242 38.8939 74.1465 31.8941 61.307 26.233C61.8462 25.2811 62.0157 24.012 61.8154 22.4256C61.7794 22.1361 61.6434 21.9218 61.4071 21.7826C61.3455 21.7437 61.2838 21.7075 61.2222 21.6741C61.0989 21.6073 61.0399 21.5015 61.045 21.3568C61.045 19.9039 61.0502 18.3843 61.0604 16.7979C61.0656 16.5307 60.9988 16.2913 60.8601 16.0798C60.819 16.013 60.7626 15.974 60.6907 15.9629C60.4082 15.9017 60.2695 15.7124 60.2747 15.3951C60.2798 13.8198 60.2823 12.3169 60.2823 10.8863C60.2823 10.6525 60.2207 10.4354 60.0975 10.235C60.0512 10.1682 59.9896 10.1265 59.9126 10.1098C59.6353 10.0541 59.4992 9.87321 59.5043 9.56705C59.5146 7.98061 59.5171 6.46933 59.512 5.03318C59.512 4.81052 59.4529 4.60178 59.3348 4.40696C59.2937 4.33459 59.2372 4.28727 59.1653 4.265C58.8829 4.18707 58.7416 3.98947 58.7416 3.67218V1.15892C58.7416 0.908428 58.6312 0.75257 58.4104 0.691339C58.323 0.669073 58.2383 0.644027 58.1561 0.616195C58.2075 0.649593 58.2434 0.646802 58.264 0.607837C58.2794 0.563305 58.3051 0.546608 58.341 0.557741C58.5567 0.607839 58.7236 0.582793 58.8418 0.482597Z" fill="url(#paint1_linear_2199_3974)"/>
<path d="M127.197 31.0257C137.53 37.6442 146.538 43.2636 154.221 47.8837C166.786 55.4319 181.392 62.5959 195.213 65.034C211.652 67.9313 225.873 63.3056 237.907 51.7413C238.323 51.3461 238.392 51.4073 238.115 51.925C231.274 64.7501 222.284 76.9323 210.127 83.9794C194.743 92.8885 176.893 90.6341 160.746 83.7122C150.762 79.4316 141.125 74.316 131.834 68.3655C132.245 68.0816 132.13 67.7727 131.488 67.4387C131.368 67.3775 131.271 67.2736 131.214 67.1444C131.156 67.0152 131.142 66.8686 131.172 66.729C131.321 66.0498 131.154 65.5238 130.671 65.1509C130.455 64.9839 130.353 64.7584 130.363 64.4745C130.394 63.044 130.404 61.6134 130.394 60.1828C130.394 59.9379 130.332 59.7097 130.209 59.4981C130.163 59.4202 130.098 59.3757 130.016 59.3646C129.744 59.3089 129.608 59.1335 129.608 58.8385C129.618 57.2465 129.621 55.738 129.616 54.313C129.616 54.0792 129.554 53.8593 129.431 53.6533C129.39 53.581 129.328 53.5365 129.246 53.5198C128.974 53.4697 128.838 53.2943 128.838 52.9937C128.848 51.4017 128.85 49.8932 128.845 48.4682C128.845 48.2344 128.786 48.0145 128.668 47.8086C128.622 47.7362 128.558 47.6917 128.476 47.675C128.203 47.6249 128.067 47.4496 128.067 47.149C128.077 45.557 128.08 44.0484 128.075 42.6234C128.075 42.3896 128.016 42.1698 127.898 41.9638C127.852 41.8914 127.787 41.8469 127.705 41.8302C127.428 41.7801 127.292 41.602 127.297 41.2958C127.312 39.7094 127.315 38.2037 127.305 36.7787C127.305 36.5504 127.246 36.3361 127.127 36.1357C127.081 36.0634 127.022 36.016 126.95 35.9938C126.678 35.9047 126.526 35.7043 126.496 35.3926C126.321 33.6837 126.555 32.2281 127.197 31.0257Z" fill="url(#paint2_linear_2199_3974)"/>
<defs>
<linearGradient id="paint0_linear_2199_3974" x1="233.5" y1="43.8833" x2="-4.48589" y2="42.5106" gradientUnits="userSpaceOnUse">
<stop stop-color="#01E248"/>
<stop offset="1" stop-color="#00C5CE"/>
</linearGradient>
<linearGradient id="paint1_linear_2199_3974" x1="233.5" y1="43.8833" x2="-4.48589" y2="42.5106" gradientUnits="userSpaceOnUse">
<stop stop-color="#01E248"/>
<stop offset="1" stop-color="#00C5CE"/>
</linearGradient>
<linearGradient id="paint2_linear_2199_3974" x1="233.5" y1="43.8833" x2="-4.48589" y2="42.5106" gradientUnits="userSpaceOnUse">
<stop stop-color="#01E248"/>
<stop offset="1" stop-color="#00C5CE"/>
</linearGradient>
</defs>
</svg>
