<svg width="127" height="55" viewBox="0 0 127 55" fill="none" xmlns="http://www.w3.org/2000/svg">
<path d="M0.250488 12.2333C0.250488 12.2333 12.1883 31.9495 41.4664 45.9681C61.9763 55.7871 82.1595 55.1018 93.5745 52.5761C111.59 48.5918 126.632 39.7126 126.632 39.7126C126.632 39.7126 124.922 32.6543 114.901 34.7982C103.606 37.2065 81.8654 46.8492 61.5625 38.7239C49.9296 34.0738 45.8233 16.1002 69.6771 19.409C78.7612 20.3978 85.2965 15.3366 83.4775 9.83485C82.6606 7.38746 80.4712 9.96212 71.5724 8.17062C69.3395 7.7203 56.3887 4.08837 53.7201 3.28563C46.4115 1.09276 42.5556 -0.414826 33.1993 1.18087C17.3947 3.89258 8.40871 13.9073 0.250488 12.2333Z" fill="url(#paint0_linear_56_46)"/>
<path d="M58.7632 34.7982C59.8088 35.6205 61.0178 36.3449 62.3249 36.8931C67.3789 38.9979 72.7923 40.0356 78.8701 40.0649C89.0107 40.1139 98.672 37.2945 106.438 35.0233C109.51 34.1227 112.167 33.3493 114.487 32.8598C115.903 32.5563 117.254 32.4095 118.507 32.4095C118.528 32.4095 118.539 32.4095 118.561 32.4095C117.548 30.6082 114.749 27.3385 107.854 28.2098C97.9967 29.4628 88.379 34.1129 74.7202 35.4051C69.1979 35.9337 63.6102 35.5226 58.7632 34.7982Z" fill="url(#paint1_linear_56_46)"/>
<path d="M63.2833 29.003C68.0432 29.0226 72.4763 28.5331 74.1537 28.21C78.1076 27.4562 81.8109 26.2521 85.3944 25.0774C89.4245 23.7656 93.2368 22.5223 97.0599 22.023C95.8509 20.4175 93.2477 18.4107 88.0194 19.0764C79.8285 20.1141 71.4416 28.2883 55.2667 26.2129C55.0162 26.6045 54.8419 27.0157 54.7548 27.4464C54.7112 27.6814 54.6895 27.9359 54.6895 28.1806C56.9877 28.6995 59.9068 28.9834 63.2833 29.003Z" fill="url(#paint2_linear_56_46)"/>
<path d="M69.2851 33.6628C71.104 33.6726 72.8795 33.5943 74.546 33.4376C82.0833 32.723 88.2592 30.9902 94.239 29.3162C98.5087 28.1219 102.561 26.9961 106.667 26.3892C105.077 24.8424 102.245 23.3642 97.3432 23.9907C90.3396 24.8816 83.0418 28.5331 74.5024 30.1581C71.812 30.6672 62.1943 31.6462 55.1252 30.3148C55.4084 31.0098 55.8332 31.7147 56.3452 32.4C60.1901 33.0852 64.6777 33.6432 69.2851 33.6628Z" fill="url(#paint3_linear_56_46)"/>
<defs>
<linearGradient id="paint0_linear_56_46" x1="63.4413" y1="0.516602" x2="63.4413" y2="54.185" gradientUnits="userSpaceOnUse">
<stop stop-color="#01D970"/>
<stop offset="1" stop-color="#00CAB6"/>
</linearGradient>
<linearGradient id="paint1_linear_56_46" x1="88.6622" y1="28.0649" x2="88.6622" y2="40.0656" gradientUnits="userSpaceOnUse">
<stop stop-color="#01D970"/>
<stop offset="1" stop-color="#00CAB6"/>
</linearGradient>
<linearGradient id="paint2_linear_56_46" x1="75.8747" y1="18.9453" x2="75.8747" y2="29.0036" gradientUnits="userSpaceOnUse">
<stop stop-color="#01D970"/>
<stop offset="1" stop-color="#00CAB6"/>
</linearGradient>
<linearGradient id="paint3_linear_56_46" x1="80.8961" y1="23.8433" x2="80.8961" y2="33.6636" gradientUnits="userSpaceOnUse">
<stop stop-color="#01D970"/>
<stop offset="1" stop-color="#00CAB6"/>
</linearGradient>
</defs>
</svg>
