<svg width="125" height="57" viewBox="0 0 125 57" fill="none" xmlns="http://www.w3.org/2000/svg">
<path d="M124.78 47.1294C124.78 47.1294 114.443 26.7769 86.2327 10.8591C66.4744 -0.28143 46.1714 -1.00586 34.5059 0.697522C16.109 3.39944 0.282715 11.143 0.282715 11.143C0.282715 11.143 1.41552 18.2502 11.6433 16.8307C23.1781 15.2252 45.7793 7.188 65.4723 16.6447C76.7566 22.0584 79.3816 40.1397 55.7238 35.2058C46.6942 33.5905 39.7124 38.1524 41.0848 43.7227C41.6947 46.1994 44.1128 43.801 52.8919 46.1994C55.0921 46.7966 67.7814 51.29 70.3847 52.269C77.5408 54.9513 81.2659 56.7134 90.7857 55.7736C106.895 54.1975 116.753 44.9072 124.78 47.1294Z" fill="url(#paint0_linear_56_53)"/>
<path d="M67.9666 20.7171C66.9863 19.8262 65.8317 19.0333 64.5682 18.3969C59.6776 15.9593 54.3296 14.5594 48.23 14.1091C38.0676 13.3553 28.134 15.4796 20.15 17.183C16.9913 17.8585 14.2573 18.4361 11.8937 18.7689C10.4451 18.9745 9.08356 19.0235 7.82007 18.9354C7.79829 18.9354 7.78741 18.9354 7.76562 18.9354C8.62611 20.7954 11.1748 24.2217 18.1567 23.8301C28.1448 23.2721 38.1874 19.3367 51.9878 19.0039C57.5972 18.8766 63.174 19.6696 67.9666 20.7171Z" fill="url(#paint1_linear_56_53)"/>
<path d="M62.9562 26.1505C58.1745 25.7981 53.6869 25.9841 51.9878 26.1799C47.9577 26.6498 44.1454 27.5896 40.453 28.5C36.3031 29.5181 32.3819 30.4873 28.4934 30.7125C29.5717 32.3865 32.0115 34.5598 37.316 34.2661C45.6159 33.806 54.7108 26.2974 70.7659 29.4692C71.0491 29.0972 71.256 28.7056 71.3758 28.2749C71.4412 28.0399 71.4847 27.7952 71.5065 27.5504C69.241 26.8847 66.3436 26.4051 62.9562 26.1505Z" fill="url(#paint2_linear_56_53)"/>
<path d="M57.3249 21.1185C55.5059 20.9814 53.7196 20.9325 52.0313 20.9814C44.4177 21.1576 38.0676 22.4498 31.9353 23.6931C27.5566 24.584 23.3958 25.4161 19.2241 25.7293C20.6946 27.374 23.4176 29.0284 28.3735 28.7543C35.4752 28.3529 43.0888 25.2496 51.7917 24.2315C54.5365 23.9085 64.2523 23.6148 71.2451 25.4259C71.0163 24.721 70.6569 23.9966 70.1885 23.2819C66.3981 22.3226 61.9432 21.4611 57.3249 21.1185Z" fill="url(#paint3_linear_56_53)"/>
<defs>
<linearGradient id="paint0_linear_56_53" x1="62.5314" y1="0" x2="62.5314" y2="56.0291" gradientUnits="userSpaceOnUse">
<stop stop-color="#01D970"/>
<stop offset="1" stop-color="#00CAB6"/>
</linearGradient>
<linearGradient id="paint1_linear_56_53" x1="37.8661" y1="13.9526" x2="37.8661" y2="23.861" gradientUnits="userSpaceOnUse">
<stop stop-color="#01D970"/>
<stop offset="1" stop-color="#00CAB6"/>
</linearGradient>
<linearGradient id="paint2_linear_56_53" x1="50" y1="25.9521" x2="50" y2="34.293" gradientUnits="userSpaceOnUse">
<stop stop-color="#01D970"/>
<stop offset="1" stop-color="#00CAB6"/>
</linearGradient>
<linearGradient id="paint3_linear_56_53" x1="45.2346" y1="20.9629" x2="45.2346" y2="28.7843" gradientUnits="userSpaceOnUse">
<stop stop-color="#01D970"/>
<stop offset="1" stop-color="#00CAB6"/>
</linearGradient>
</defs>
</svg>
